<mxfile host="app.diagrams.net" modified="2024-03-19T01:17:30.822Z" agent="Mozilla/5.0 (Windows NT 10.0; Win64; x64) AppleWebKit/537.36 (KHTML, like Gecko) Chrome/116.0.0.0 Safari/537.36" etag="WtNoKJzUGi1Jm9xNQgi1" version="24.0.7" type="device">
  <diagram name="Page-1" id="13e1069c-82ec-6db2-03f1-153e76fe0fe0">
    <mxGraphModel dx="1793" dy="948" grid="1" gridSize="10" guides="1" tooltips="1" connect="1" arrows="1" fold="1" page="1" pageScale="1" pageWidth="1100" pageHeight="850" background="none" math="0" shadow="0">
      <root>
        <mxCell id="0" />
        <mxCell id="1" parent="0" />
        <mxCell id="7baba1c4bc27f4b0-2" value=":Main_UI" style="shape=umlLifeline;perimeter=lifelinePerimeter;whiteSpace=wrap;html=1;container=1;collapsible=0;recursiveResize=0;outlineConnect=0;rounded=1;shadow=0;comic=0;labelBackgroundColor=none;strokeWidth=1;fontFamily=Verdana;fontSize=12;align=center;" parent="1" vertex="1">
          <mxGeometry x="240" y="80" width="100" height="680" as="geometry" />
        </mxCell>
        <mxCell id="7baba1c4bc27f4b0-10" value="" style="html=1;points=[];perimeter=orthogonalPerimeter;rounded=0;shadow=0;comic=0;labelBackgroundColor=none;strokeWidth=1;fontFamily=Verdana;fontSize=12;align=center;" parent="7baba1c4bc27f4b0-2" vertex="1">
          <mxGeometry x="45" y="100" width="10" height="580" as="geometry" />
        </mxCell>
        <mxCell id="0Fomx1_nj3IsyNkT2C7B-7" value="4.handle_configuration()" style="html=1;verticalAlign=bottom;endArrow=block;labelBackgroundColor=none;fontFamily=Verdana;fontSize=12;edgeStyle=elbowEdgeStyle;elbow=vertical;exitX=0.1;exitY=0.8;exitDx=0;exitDy=0;exitPerimeter=0;" edge="1" parent="7baba1c4bc27f4b0-2" target="7baba1c4bc27f4b0-3">
          <mxGeometry relative="1" as="geometry">
            <mxPoint x="48" y="240" as="sourcePoint" />
            <mxPoint x="230" y="240" as="targetPoint" />
            <mxPoint as="offset" />
          </mxGeometry>
        </mxCell>
        <mxCell id="7baba1c4bc27f4b0-14" value="2.handle_load()" style="html=1;verticalAlign=bottom;endArrow=block;labelBackgroundColor=none;fontFamily=Verdana;fontSize=12;edgeStyle=elbowEdgeStyle;elbow=vertical;" parent="7baba1c4bc27f4b0-2" target="7baba1c4bc27f4b0-3" edge="1">
          <mxGeometry relative="1" as="geometry">
            <mxPoint x="55" y="120" as="sourcePoint" />
            <mxPoint x="230" y="115" as="targetPoint" />
          </mxGeometry>
        </mxCell>
        <mxCell id="7baba1c4bc27f4b0-3" value=":Controller" style="shape=umlLifeline;perimeter=lifelinePerimeter;whiteSpace=wrap;html=1;container=1;collapsible=0;recursiveResize=0;outlineConnect=0;rounded=1;shadow=0;comic=0;labelBackgroundColor=none;strokeWidth=1;fontFamily=Verdana;fontSize=12;align=center;" parent="1" vertex="1">
          <mxGeometry x="390" y="80" width="235" height="710" as="geometry" />
        </mxCell>
        <mxCell id="7baba1c4bc27f4b0-13" value="" style="html=1;points=[];perimeter=orthogonalPerimeter;rounded=0;shadow=0;comic=0;labelBackgroundColor=none;strokeWidth=1;fontFamily=Verdana;fontSize=12;align=center;" parent="7baba1c4bc27f4b0-3" vertex="1">
          <mxGeometry x="112.5" y="90" width="10" height="620" as="geometry" />
        </mxCell>
        <mxCell id="0Fomx1_nj3IsyNkT2C7B-15" value="" style="curved=1;endArrow=classic;html=1;rounded=0;exitX=1;exitY=0.387;exitDx=0;exitDy=0;exitPerimeter=0;entryX=1;entryY=0.446;entryDx=0;entryDy=0;entryPerimeter=0;" edge="1" parent="7baba1c4bc27f4b0-3">
          <mxGeometry width="50" height="50" relative="1" as="geometry">
            <mxPoint x="123" y="287.94000000000005" as="sourcePoint" />
            <mxPoint x="123" y="324.52" as="targetPoint" />
            <Array as="points">
              <mxPoint x="161" y="260" />
            </Array>
          </mxGeometry>
        </mxCell>
        <mxCell id="0Fomx1_nj3IsyNkT2C7B-17" value="&lt;p style=&quot;line-height: 120%;&quot;&gt;&lt;font style=&quot;font-size: 10px;&quot;&gt;5.start_main&lt;/font&gt;&lt;span style=&quot;font-size: 10px; background-color: initial;&quot;&gt;_pipeline()&lt;/span&gt;&lt;/p&gt;" style="text;html=1;align=center;verticalAlign=middle;resizable=0;points=[];autosize=1;strokeColor=none;fillColor=none;" vertex="1" parent="7baba1c4bc27f4b0-3">
          <mxGeometry x="112.5" y="230" width="130" height="50" as="geometry" />
        </mxCell>
        <mxCell id="0Fomx1_nj3IsyNkT2C7B-4" value="alt" style="shape=umlFrame;whiteSpace=wrap;html=1;pointerEvents=0;recursiveResize=0;container=1;collapsible=0;width=50;" vertex="1" parent="7baba1c4bc27f4b0-3">
          <mxGeometry x="10" y="265" width="200" height="115" as="geometry" />
        </mxCell>
        <mxCell id="0Fomx1_nj3IsyNkT2C7B-5" value="[if run_config=1]" style="text;align=center;html=1;" vertex="1" parent="0Fomx1_nj3IsyNkT2C7B-4">
          <mxGeometry width="100" height="20" relative="1" as="geometry">
            <mxPoint y="30" as="offset" />
          </mxGeometry>
        </mxCell>
        <mxCell id="0Fomx1_nj3IsyNkT2C7B-19" value="&lt;span style=&quot;color: rgb(0, 0, 0); font-family: Helvetica; font-size: 12px; font-style: normal; font-variant-ligatures: normal; font-variant-caps: normal; font-weight: 400; letter-spacing: normal; orphans: 2; text-align: center; text-indent: 0px; text-transform: none; widows: 2; word-spacing: 0px; -webkit-text-stroke-width: 0px; white-space: nowrap; background-color: rgb(251, 251, 251); text-decoration-thickness: initial; text-decoration-style: initial; text-decoration-color: initial; display: inline !important; float: none;&quot;&gt;[if run_config=2]&lt;/span&gt;" style="text;whiteSpace=wrap;html=1;" vertex="1" parent="0Fomx1_nj3IsyNkT2C7B-4">
          <mxGeometry x="10" y="55" width="120" height="40" as="geometry" />
        </mxCell>
        <mxCell id="0Fomx1_nj3IsyNkT2C7B-20" value="" style="curved=1;endArrow=classic;html=1;rounded=0;exitX=1;exitY=0.387;exitDx=0;exitDy=0;exitPerimeter=0;entryX=1;entryY=0.446;entryDx=0;entryDy=0;entryPerimeter=0;" edge="1" parent="0Fomx1_nj3IsyNkT2C7B-4">
          <mxGeometry width="50" height="50" relative="1" as="geometry">
            <mxPoint x="113" y="61" as="sourcePoint" />
            <mxPoint x="113" y="89" as="targetPoint" />
            <Array as="points">
              <mxPoint x="150" y="61" />
            </Array>
          </mxGeometry>
        </mxCell>
        <mxCell id="0Fomx1_nj3IsyNkT2C7B-6" value="" style="endArrow=none;startArrow=none;endFill=0;startFill=0;endSize=8;html=1;verticalAlign=bottom;dashed=1;labelBackgroundColor=none;dashPattern=10 10;rounded=0;entryX=0.997;entryY=0.505;entryDx=0;entryDy=0;entryPerimeter=0;exitX=0.006;exitY=0.5;exitDx=0;exitDy=0;exitPerimeter=0;" edge="1" parent="7baba1c4bc27f4b0-3" source="0Fomx1_nj3IsyNkT2C7B-4" target="0Fomx1_nj3IsyNkT2C7B-4">
          <mxGeometry width="160" relative="1" as="geometry">
            <mxPoint x="310" y="304.5" as="sourcePoint" />
            <mxPoint x="470" y="304.5" as="targetPoint" />
          </mxGeometry>
        </mxCell>
        <mxCell id="0Fomx1_nj3IsyNkT2C7B-29" value="update_progress()" style="html=1;verticalAlign=bottom;endArrow=block;labelBackgroundColor=none;fontFamily=Verdana;fontSize=12;edgeStyle=elbowEdgeStyle;elbow=vertical;" edge="1" parent="7baba1c4bc27f4b0-3">
          <mxGeometry x="0.2915" relative="1" as="geometry">
            <mxPoint x="112.5" y="470" as="sourcePoint" />
            <mxPoint x="-92.5" y="470" as="targetPoint" />
            <Array as="points" />
            <mxPoint as="offset" />
          </mxGeometry>
        </mxCell>
        <mxCell id="0Fomx1_nj3IsyNkT2C7B-30" value="8.perform_attacks()" style="html=1;verticalAlign=bottom;endArrow=block;labelBackgroundColor=none;fontFamily=Verdana;fontSize=12;edgeStyle=elbowEdgeStyle;elbow=vertical;entryX=-0.439;entryY=0.67;entryDx=0;entryDy=0;entryPerimeter=0;" edge="1" parent="7baba1c4bc27f4b0-3" target="0Fomx1_nj3IsyNkT2C7B-25">
          <mxGeometry x="-0.3511" relative="1" as="geometry">
            <mxPoint x="122.5" y="490.11" as="sourcePoint" />
            <mxPoint x="410" y="490" as="targetPoint" />
            <Array as="points">
              <mxPoint x="380" y="530" />
              <mxPoint x="360" y="510" />
            </Array>
            <mxPoint as="offset" />
          </mxGeometry>
        </mxCell>
        <mxCell id="0Fomx1_nj3IsyNkT2C7B-33" value="update_progress is being called continously during the 7-12 run" style="shape=note;whiteSpace=wrap;html=1;size=14;verticalAlign=top;align=left;spacingTop=-6;rounded=0;shadow=0;comic=0;labelBackgroundColor=none;strokeWidth=1;fontFamily=Verdana;fontSize=12" vertex="1" parent="7baba1c4bc27f4b0-3">
          <mxGeometry x="-80" y="480" width="150" height="90" as="geometry" />
        </mxCell>
        <mxCell id="7baba1c4bc27f4b0-6" value=":Core" style="shape=umlLifeline;perimeter=lifelinePerimeter;whiteSpace=wrap;html=1;container=1;collapsible=0;recursiveResize=0;outlineConnect=0;rounded=1;shadow=0;comic=0;labelBackgroundColor=none;strokeWidth=1;fontFamily=Verdana;fontSize=12;align=center;" parent="1" vertex="1">
          <mxGeometry x="740" y="77.5" width="330" height="740" as="geometry" />
        </mxCell>
        <mxCell id="0Fomx1_nj3IsyNkT2C7B-25" value="" style="html=1;points=[];perimeter=orthogonalPerimeter;rounded=0;shadow=0;comic=0;labelBackgroundColor=none;strokeWidth=1;fontFamily=Verdana;fontSize=12;align=center;" vertex="1" parent="7baba1c4bc27f4b0-6">
          <mxGeometry x="160" y="92.5" width="10" height="650" as="geometry" />
        </mxCell>
        <mxCell id="0Fomx1_nj3IsyNkT2C7B-54" value="Similar loop for step 9 and DefenseApplier and step 10 that combines both." style="shape=note;whiteSpace=wrap;html=1;size=14;verticalAlign=top;align=left;spacingTop=-6;rounded=0;shadow=0;comic=0;labelBackgroundColor=none;strokeWidth=1;fontFamily=Verdana;fontSize=12" vertex="1" parent="7baba1c4bc27f4b0-6">
          <mxGeometry x="180" y="432.5" width="150" height="67.5" as="geometry" />
        </mxCell>
        <mxCell id="0Fomx1_nj3IsyNkT2C7B-56" value="return" style="html=1;verticalAlign=bottom;endArrow=open;dashed=1;endSize=8;labelBackgroundColor=none;fontFamily=Verdana;fontSize=12;edgeStyle=elbowEdgeStyle;elbow=vertical;" edge="1" parent="7baba1c4bc27f4b0-6" target="7baba1c4bc27f4b0-3">
          <mxGeometry x="-0.2371" relative="1" as="geometry">
            <mxPoint x="-43" y="652.5" as="targetPoint" />
            <Array as="points">
              <mxPoint x="107" y="662.5" />
              <mxPoint x="32" y="632.5" />
              <mxPoint x="62" y="632.5" />
            </Array>
            <mxPoint x="160" y="662.5" as="sourcePoint" />
            <mxPoint as="offset" />
          </mxGeometry>
        </mxCell>
        <mxCell id="7baba1c4bc27f4b0-7" value=":ReportsGenerator" style="shape=umlLifeline;perimeter=lifelinePerimeter;whiteSpace=wrap;html=1;container=1;collapsible=0;recursiveResize=0;outlineConnect=0;rounded=1;shadow=0;comic=0;labelBackgroundColor=none;strokeWidth=1;fontFamily=Verdana;fontSize=12;align=center;" parent="1" vertex="1">
          <mxGeometry x="1280" y="77.5" width="180" height="690" as="geometry" />
        </mxCell>
        <mxCell id="7baba1c4bc27f4b0-8" value="User" style="shape=umlLifeline;perimeter=lifelinePerimeter;whiteSpace=wrap;html=1;container=1;collapsible=0;recursiveResize=0;outlineConnect=0;rounded=1;shadow=0;comic=0;labelBackgroundColor=none;strokeWidth=1;fontFamily=Verdana;fontSize=12;align=center;" parent="1" vertex="1">
          <mxGeometry y="80" width="210" height="680" as="geometry" />
        </mxCell>
        <mxCell id="7baba1c4bc27f4b0-9" value="" style="html=1;points=[];perimeter=orthogonalPerimeter;rounded=0;shadow=0;comic=0;labelBackgroundColor=none;strokeWidth=1;fontFamily=Verdana;fontSize=12;align=center;" parent="7baba1c4bc27f4b0-8" vertex="1">
          <mxGeometry x="100" y="110" width="10" height="570" as="geometry" />
        </mxCell>
        <mxCell id="7baba1c4bc27f4b0-11" value="1.Input File Paths" style="html=1;verticalAlign=bottom;endArrow=block;labelBackgroundColor=none;fontFamily=Verdana;fontSize=12;edgeStyle=elbowEdgeStyle;elbow=vertical;" parent="1" source="7baba1c4bc27f4b0-9" edge="1">
          <mxGeometry relative="1" as="geometry">
            <mxPoint x="220" y="190" as="sourcePoint" />
            <mxPoint x="280" y="190" as="targetPoint" />
          </mxGeometry>
        </mxCell>
        <mxCell id="0Fomx1_nj3IsyNkT2C7B-1" value="return" style="html=1;verticalAlign=bottom;endArrow=open;dashed=1;endSize=8;labelBackgroundColor=none;fontFamily=Verdana;fontSize=12;edgeStyle=elbowEdgeStyle;elbow=vertical;" edge="1" parent="1" source="7baba1c4bc27f4b0-13">
          <mxGeometry relative="1" as="geometry">
            <mxPoint x="300" y="250" as="targetPoint" />
            <Array as="points">
              <mxPoint x="450" y="260" />
              <mxPoint x="375" y="230" />
              <mxPoint x="405" y="230" />
            </Array>
            <mxPoint x="430" y="230" as="sourcePoint" />
          </mxGeometry>
        </mxCell>
        <mxCell id="7baba1c4bc27f4b0-44" value="Note&lt;br&gt;config1 is default parameters or set by user.&lt;br&gt;&lt;br&gt;config2 is to automatically optimize parameters(not yet implemented)" style="shape=note;whiteSpace=wrap;html=1;size=14;verticalAlign=top;align=left;spacingTop=-6;rounded=0;shadow=0;comic=0;labelBackgroundColor=none;strokeWidth=1;fontFamily=Verdana;fontSize=12" parent="1" vertex="1">
          <mxGeometry x="300" y="335" width="90" height="175" as="geometry" />
        </mxCell>
        <mxCell id="7baba1c4bc27f4b0-5" value=":DataLoader" style="shape=umlLifeline;perimeter=lifelinePerimeter;whiteSpace=wrap;html=1;container=1;collapsible=0;recursiveResize=0;outlineConnect=0;rounded=1;shadow=0;comic=0;labelBackgroundColor=none;strokeWidth=1;fontFamily=Verdana;fontSize=12;align=center;" parent="1" vertex="1">
          <mxGeometry x="650" y="80" width="80" height="720" as="geometry" />
        </mxCell>
        <mxCell id="7baba1c4bc27f4b0-28" value="" style="html=1;points=[];perimeter=orthogonalPerimeter;rounded=0;shadow=0;comic=0;labelBackgroundColor=none;strokeWidth=1;fontFamily=Verdana;fontSize=12;align=center;" parent="7baba1c4bc27f4b0-5" vertex="1">
          <mxGeometry x="35" y="140" width="10" height="580" as="geometry" />
        </mxCell>
        <mxCell id="0Fomx1_nj3IsyNkT2C7B-28" value="update_progress()" style="html=1;verticalAlign=bottom;endArrow=block;labelBackgroundColor=none;fontFamily=Verdana;fontSize=12;edgeStyle=elbowEdgeStyle;elbow=vertical;" edge="1" parent="7baba1c4bc27f4b0-5">
          <mxGeometry x="0.4886" relative="1" as="geometry">
            <mxPoint x="102.5" y="460" as="sourcePoint" />
            <mxPoint x="-137.5" y="460" as="targetPoint" />
            <Array as="points">
              <mxPoint x="250" y="460" />
            </Array>
            <mxPoint as="offset" />
          </mxGeometry>
        </mxCell>
        <mxCell id="0Fomx1_nj3IsyNkT2C7B-35" value="12.generate_report()" style="html=1;verticalAlign=bottom;endArrow=block;labelBackgroundColor=none;fontFamily=Verdana;fontSize=12;edgeStyle=elbowEdgeStyle;elbow=vertical;" edge="1" parent="7baba1c4bc27f4b0-5" target="7baba1c4bc27f4b0-7">
          <mxGeometry x="-0.0376" relative="1" as="geometry">
            <mxPoint x="-140" y="680.44" as="sourcePoint" />
            <mxPoint x="380" y="680.22" as="targetPoint" />
            <mxPoint as="offset" />
          </mxGeometry>
        </mxCell>
        <mxCell id="0Fomx1_nj3IsyNkT2C7B-22" value="3.Create_dataloader()" style="html=1;verticalAlign=bottom;endArrow=block;labelBackgroundColor=none;fontFamily=Verdana;fontSize=12;edgeStyle=elbowEdgeStyle;elbow=vertical;" edge="1" parent="1">
          <mxGeometry relative="1" as="geometry">
            <mxPoint x="510" y="220" as="sourcePoint" />
            <mxPoint x="690" y="220" as="targetPoint" />
          </mxGeometry>
        </mxCell>
        <mxCell id="0Fomx1_nj3IsyNkT2C7B-24" value="return" style="html=1;verticalAlign=bottom;endArrow=open;dashed=1;endSize=8;labelBackgroundColor=none;fontFamily=Verdana;fontSize=12;edgeStyle=elbowEdgeStyle;elbow=vertical;" edge="1" parent="1">
          <mxGeometry relative="1" as="geometry">
            <mxPoint x="520" y="240" as="targetPoint" />
            <Array as="points">
              <mxPoint x="575" y="240" />
              <mxPoint x="605" y="240" />
            </Array>
            <mxPoint x="680" y="240" as="sourcePoint" />
          </mxGeometry>
        </mxCell>
        <mxCell id="0Fomx1_nj3IsyNkT2C7B-2" value="4.Choose Att&amp;amp;Def&amp;amp;run config" style="html=1;verticalAlign=bottom;endArrow=block;labelBackgroundColor=none;fontFamily=Verdana;fontSize=12;edgeStyle=elbowEdgeStyle;elbow=vertical;" edge="1" parent="1">
          <mxGeometry x="0.0526" y="1" relative="1" as="geometry">
            <mxPoint x="110" y="290.5" as="sourcePoint" />
            <mxPoint x="280.5" y="290" as="targetPoint" />
            <Array as="points" />
            <mxPoint y="1" as="offset" />
          </mxGeometry>
        </mxCell>
        <mxCell id="0Fomx1_nj3IsyNkT2C7B-26" value="6.optimize_parameters()" style="html=1;verticalAlign=bottom;endArrow=block;labelBackgroundColor=none;fontFamily=Verdana;fontSize=12;edgeStyle=elbowEdgeStyle;elbow=vertical;" edge="1" parent="1" target="7baba1c4bc27f4b0-6">
          <mxGeometry relative="1" as="geometry">
            <mxPoint x="510" y="440" as="sourcePoint" />
            <mxPoint x="690" y="440" as="targetPoint" />
          </mxGeometry>
        </mxCell>
        <mxCell id="0Fomx1_nj3IsyNkT2C7B-27" value="7.perform_benign_evaluation()" style="html=1;verticalAlign=bottom;endArrow=block;labelBackgroundColor=none;fontFamily=Verdana;fontSize=12;edgeStyle=elbowEdgeStyle;elbow=vertical;" edge="1" parent="1" target="7baba1c4bc27f4b0-6">
          <mxGeometry relative="1" as="geometry">
            <mxPoint x="510" y="490" as="sourcePoint" />
            <mxPoint x="835" y="490" as="targetPoint" />
          </mxGeometry>
        </mxCell>
        <mxCell id="0Fomx1_nj3IsyNkT2C7B-34" value="11.get_metrics()" style="html=1;verticalAlign=bottom;endArrow=block;labelBackgroundColor=none;fontFamily=Verdana;fontSize=12;edgeStyle=elbowEdgeStyle;elbow=vertical;entryX=-0.163;entryY=0.845;entryDx=0;entryDy=0;entryPerimeter=0;" edge="1" parent="1" target="0Fomx1_nj3IsyNkT2C7B-25">
          <mxGeometry x="-0.3511" relative="1" as="geometry">
            <mxPoint x="500" y="730.11" as="sourcePoint" />
            <mxPoint x="832.5" y="730" as="targetPoint" />
            <mxPoint as="offset" />
          </mxGeometry>
        </mxCell>
        <mxCell id="0Fomx1_nj3IsyNkT2C7B-32" value="10.perform_attacks_Defenses()" style="html=1;verticalAlign=bottom;endArrow=block;labelBackgroundColor=none;fontFamily=Verdana;fontSize=12;edgeStyle=elbowEdgeStyle;elbow=vertical;entryX=0.047;entryY=0.823;entryDx=0;entryDy=0;entryPerimeter=0;" edge="1" parent="1" target="0Fomx1_nj3IsyNkT2C7B-25">
          <mxGeometry x="-0.3511" relative="1" as="geometry">
            <mxPoint x="500" y="710.22" as="sourcePoint" />
            <mxPoint x="890" y="720" as="targetPoint" />
            <mxPoint as="offset" />
          </mxGeometry>
        </mxCell>
        <mxCell id="0Fomx1_nj3IsyNkT2C7B-31" value="9.perform_defenses()" style="html=1;verticalAlign=bottom;endArrow=block;labelBackgroundColor=none;fontFamily=Verdana;fontSize=12;edgeStyle=elbowEdgeStyle;elbow=vertical;entryX=-0.426;entryY=0.789;entryDx=0;entryDy=0;entryPerimeter=0;" edge="1" parent="1" target="0Fomx1_nj3IsyNkT2C7B-25">
          <mxGeometry x="-0.3511" relative="1" as="geometry">
            <mxPoint x="510" y="690.11" as="sourcePoint" />
            <mxPoint x="890" y="693" as="targetPoint" />
            <mxPoint as="offset" />
          </mxGeometry>
        </mxCell>
        <mxCell id="0Fomx1_nj3IsyNkT2C7B-47" value=":AttackExecutor" style="shape=umlLifeline;perimeter=lifelinePerimeter;whiteSpace=wrap;html=1;container=1;collapsible=0;recursiveResize=0;outlineConnect=0;rounded=1;shadow=0;comic=0;labelBackgroundColor=none;strokeWidth=1;fontFamily=Verdana;fontSize=12;align=center;" vertex="1" parent="1">
          <mxGeometry x="1080" y="77.5" width="180" height="660" as="geometry" />
        </mxCell>
        <mxCell id="0Fomx1_nj3IsyNkT2C7B-36" value="loop" style="shape=umlFrame;whiteSpace=wrap;html=1;pointerEvents=0;recursiveResize=0;container=1;collapsible=0;width=50;" vertex="1" parent="0Fomx1_nj3IsyNkT2C7B-47">
          <mxGeometry x="-260" y="512.5" width="380" height="90" as="geometry" />
        </mxCell>
        <mxCell id="0Fomx1_nj3IsyNkT2C7B-37" value="[for each attack]" style="text;align=center;html=1;" vertex="1" parent="0Fomx1_nj3IsyNkT2C7B-36">
          <mxGeometry width="100" height="20" relative="1" as="geometry">
            <mxPoint y="30" as="offset" />
          </mxGeometry>
        </mxCell>
        <mxCell id="0Fomx1_nj3IsyNkT2C7B-50" value="execute_attack()" style="html=1;verticalAlign=bottom;endArrow=block;labelBackgroundColor=none;fontFamily=Verdana;fontSize=12;edgeStyle=elbowEdgeStyle;elbow=vertical;entryX=-0.163;entryY=0.226;entryDx=0;entryDy=0;entryPerimeter=0;" edge="1" parent="0Fomx1_nj3IsyNkT2C7B-36" target="0Fomx1_nj3IsyNkT2C7B-48">
          <mxGeometry relative="1" as="geometry">
            <mxPoint x="100" y="32.5" as="sourcePoint" />
            <mxPoint x="360" y="36.5" as="targetPoint" />
          </mxGeometry>
        </mxCell>
        <mxCell id="0Fomx1_nj3IsyNkT2C7B-48" value="" style="html=1;points=[];perimeter=orthogonalPerimeter;rounded=0;shadow=0;comic=0;labelBackgroundColor=none;strokeColor=#000000;strokeWidth=1;fillColor=#FFFFFF;fontFamily=Verdana;fontSize=12;fontColor=#000000;align=center;" vertex="1" parent="0Fomx1_nj3IsyNkT2C7B-36">
          <mxGeometry x="350" y="21.25" width="10" height="47.5" as="geometry" />
        </mxCell>
        <mxCell id="0Fomx1_nj3IsyNkT2C7B-52" value="return:x_adv" style="html=1;verticalAlign=bottom;endArrow=open;dashed=1;endSize=8;labelBackgroundColor=none;fontFamily=Verdana;fontSize=12;edgeStyle=elbowEdgeStyle;elbow=vertical;exitX=-0.058;exitY=0.67;exitDx=0;exitDy=0;exitPerimeter=0;" edge="1" parent="0Fomx1_nj3IsyNkT2C7B-36" source="0Fomx1_nj3IsyNkT2C7B-48">
          <mxGeometry relative="1" as="geometry">
            <mxPoint x="100" y="60" as="targetPoint" />
            <Array as="points">
              <mxPoint x="155" y="60" />
              <mxPoint x="185" y="60" />
            </Array>
            <mxPoint x="260" y="60" as="sourcePoint" />
          </mxGeometry>
        </mxCell>
        <mxCell id="7baba1c4bc27f4b0-25" value="" style="html=1;points=[];perimeter=orthogonalPerimeter;rounded=0;shadow=0;comic=0;labelBackgroundColor=none;strokeColor=#000000;strokeWidth=1;fillColor=#FFFFFF;fontFamily=Verdana;fontSize=12;fontColor=#000000;align=center;" parent="1" vertex="1">
          <mxGeometry x="1365" y="750" width="10" height="70" as="geometry" />
        </mxCell>
      </root>
    </mxGraphModel>
  </diagram>
</mxfile>
